<region> lovel=1 hivel=6 amp_velcurve_6=1 sample=../samples/snares/sn12bop/brs/snare_on/sws/sn12wbop_brs_sws_001p.wav
<region> lovel=7 hivel=12 amp_velcurve_12=1 sample=../samples/snares/sn12bop/brs/snare_on/sws/sn12wbop_brs_sws_004p.wav
<region> lovel=13 hivel=18 amp_velcurve_18=1 sample=../samples/snares/sn12bop/brs/snare_on/sws/sn12wbop_brs_sws_005p.wav
<region> lovel=19 hivel=24 amp_velcurve_24=1 sample=../samples/snares/sn12bop/brs/snare_on/sws/sn12wbop_brs_sws_006p.wav
<region> lovel=25 hivel=30 amp_velcurve_30=1 sample=../samples/snares/sn12bop/brs/snare_on/sws/sn12wbop_brs_sws_007p.wav
<region> lovel=31 hivel=36 amp_velcurve_36=1 sample=../samples/snares/sn12bop/brs/snare_on/sws/sn12wbop_brs_sws_009p.wav
<region> lovel=37 hivel=43 amp_velcurve_43=1 sample=../samples/snares/sn12bop/brs/snare_on/sws/sn12wbop_brs_sws_010p.wav
<region> lovel=44 hivel=50 amp_velcurve_50=1 sample=../samples/snares/sn12bop/brs/snare_on/sws/sn12wbop_brs_sws_011p.wav
<region> lovel=51 hivel=57 amp_velcurve_57=1 sample=../samples/snares/sn12bop/brs/snare_on/sws/sn12wbop_brs_sws_012p.wav
<region> lovel=58 hivel=64 amp_velcurve_64=1 sample=../samples/snares/sn12bop/brs/snare_on/sws/sn12wbop_brs_sws_013p.wav
<region> lovel=65 hivel=71 amp_velcurve_71=1 sample=../samples/snares/sn12bop/brs/snare_on/sws/sn12wbop_brs_sws_014p.wav
<region> lovel=72 hivel=78 amp_velcurve_78=1 sample=../samples/snares/sn12bop/brs/snare_on/sws/sn12wbop_brs_sws_017p.wav
<region> lovel=79 hivel=85 amp_velcurve_85=1 sample=../samples/snares/sn12bop/brs/snare_on/sws/sn12wbop_brs_sws_020p.wav
<region> lovel=86 hivel=92 amp_velcurve_92=1 sample=../samples/snares/sn12bop/brs/snare_on/sws/sn12wbop_brs_sws_021p.wav
<region> lovel=93 hivel=99 amp_velcurve_99=1 sample=../samples/snares/sn12bop/brs/snare_on/sws/sn12wbop_brs_sws_022p.wav
<region> lovel=100 hivel=106 amp_velcurve_106=1 sample=../samples/snares/sn12bop/brs/snare_on/sws/sn12wbop_brs_sws_023p.wav
<region> lovel=107 hivel=113 amp_velcurve_113=1 sample=../samples/snares/sn12bop/brs/snare_on/sws/sn12wbop_brs_sws_025p.wav
<region> lovel=114 hivel=120 amp_velcurve_120=1 sample=../samples/snares/sn12bop/brs/snare_on/sws/sn12wbop_brs_sws_026p.wav
<region> lovel=121 hivel=127 amp_velcurve_127=1 sample=../samples/snares/sn12bop/brs/snare_on/sws/sn12wbop_brs_sws_029p.wav
